<mxfile host="Electron" modified="2024-04-10T22:35:42.042Z" agent="Mozilla/5.0 (Windows NT 10.0; Win64; x64) AppleWebKit/537.36 (KHTML, like Gecko) draw.io/23.0.2 Chrome/120.0.6099.109 Electron/28.1.0 Safari/537.36" etag="HXGCcz4rJofRdzSBw0YO" version="23.0.2" type="device">
  <diagram name="Página-1" id="WqI8HhTnGWIrGZ8VdLDX">
    <mxGraphModel dx="1045" dy="654" grid="1" gridSize="10" guides="1" tooltips="1" connect="1" arrows="1" fold="1" page="1" pageScale="1" pageWidth="827" pageHeight="1169" math="0" shadow="0">
      <root>
        <mxCell id="0" />
        <mxCell id="1" parent="0" />
        <mxCell id="xCffIDwugVprb99Rx0e6-1" value="" style="shape=actor;whiteSpace=wrap;html=1;" vertex="1" parent="1">
          <mxGeometry x="40" y="70" width="40" height="60" as="geometry" />
        </mxCell>
        <mxCell id="xCffIDwugVprb99Rx0e6-2" value="Servidor" style="image;html=1;image=img/lib/clip_art/computers/Server_128x128.png" vertex="1" parent="1">
          <mxGeometry x="20" y="410" width="80" height="60" as="geometry" />
        </mxCell>
        <mxCell id="xCffIDwugVprb99Rx0e6-3" value="Utilizador introduz&amp;nbsp;&lt;br&gt;email e palavra passe&lt;br&gt;" style="ellipse;whiteSpace=wrap;html=1;" vertex="1" parent="1">
          <mxGeometry x="180" y="60" width="100" height="70" as="geometry" />
        </mxCell>
        <mxCell id="xCffIDwugVprb99Rx0e6-5" value="Autenticação" style="ellipse;whiteSpace=wrap;html=1;" vertex="1" parent="1">
          <mxGeometry x="180" y="220" width="100" height="40" as="geometry" />
        </mxCell>
        <mxCell id="xCffIDwugVprb99Rx0e6-7" value="" style="endArrow=classic;html=1;rounded=0;entryX=0.5;entryY=0;entryDx=0;entryDy=0;" edge="1" parent="1" source="xCffIDwugVprb99Rx0e6-3" target="xCffIDwugVprb99Rx0e6-5">
          <mxGeometry width="50" height="50" relative="1" as="geometry">
            <mxPoint x="240" y="170" as="sourcePoint" />
            <mxPoint x="290" y="120" as="targetPoint" />
          </mxGeometry>
        </mxCell>
        <mxCell id="xCffIDwugVprb99Rx0e6-14" value="Inclui" style="edgeLabel;html=1;align=center;verticalAlign=middle;resizable=0;points=[];" vertex="1" connectable="0" parent="xCffIDwugVprb99Rx0e6-7">
          <mxGeometry x="-0.0489" y="-2" relative="1" as="geometry">
            <mxPoint as="offset" />
          </mxGeometry>
        </mxCell>
        <mxCell id="xCffIDwugVprb99Rx0e6-8" value="" style="shape=actor;whiteSpace=wrap;html=1;" vertex="1" parent="1">
          <mxGeometry x="530" y="180" width="40" height="60" as="geometry" />
        </mxCell>
        <mxCell id="xCffIDwugVprb99Rx0e6-9" value="Utilizador Malicioso&lt;br&gt;" style="text;html=1;align=center;verticalAlign=middle;resizable=0;points=[];autosize=1;strokeColor=none;fillColor=none;" vertex="1" parent="1">
          <mxGeometry x="490" y="150" width="130" height="30" as="geometry" />
        </mxCell>
        <mxCell id="xCffIDwugVprb99Rx0e6-10" value="Utilizador&lt;br&gt;" style="text;html=1;align=center;verticalAlign=middle;resizable=0;points=[];autosize=1;strokeColor=none;fillColor=none;" vertex="1" parent="1">
          <mxGeometry x="30" y="140" width="70" height="30" as="geometry" />
        </mxCell>
        <mxCell id="xCffIDwugVprb99Rx0e6-11" value="Mensagem de erro genérica" style="ellipse;whiteSpace=wrap;html=1;" vertex="1" parent="1">
          <mxGeometry x="180" y="300" width="90" height="50" as="geometry" />
        </mxCell>
        <mxCell id="xCffIDwugVprb99Rx0e6-12" value="Bloqueia conta após 10 tentativas falhadas&lt;br&gt;" style="ellipse;whiteSpace=wrap;html=1;" vertex="1" parent="1">
          <mxGeometry x="175" y="410" width="100" height="70" as="geometry" />
        </mxCell>
        <mxCell id="xCffIDwugVprb99Rx0e6-13" value="Valida password&lt;br&gt;(minimo 12 caracteres e não esta no top 1000 passwords pawned" style="ellipse;whiteSpace=wrap;html=1;" vertex="1" parent="1">
          <mxGeometry x="162.5" y="540" width="125" height="100" as="geometry" />
        </mxCell>
        <mxCell id="xCffIDwugVprb99Rx0e6-15" value="" style="endArrow=classic;html=1;rounded=0;" edge="1" parent="1" source="xCffIDwugVprb99Rx0e6-5" target="xCffIDwugVprb99Rx0e6-11">
          <mxGeometry width="50" height="50" relative="1" as="geometry">
            <mxPoint x="140" y="360" as="sourcePoint" />
            <mxPoint x="190" y="310" as="targetPoint" />
          </mxGeometry>
        </mxCell>
        <mxCell id="xCffIDwugVprb99Rx0e6-16" value="inclui&lt;br&gt;" style="edgeLabel;html=1;align=center;verticalAlign=middle;resizable=0;points=[];" vertex="1" connectable="0" parent="xCffIDwugVprb99Rx0e6-15">
          <mxGeometry x="-0.3091" relative="1" as="geometry">
            <mxPoint as="offset" />
          </mxGeometry>
        </mxCell>
        <mxCell id="xCffIDwugVprb99Rx0e6-19" value="" style="endArrow=classic;html=1;rounded=0;exitX=0.5;exitY=1;exitDx=0;exitDy=0;" edge="1" parent="1" source="xCffIDwugVprb99Rx0e6-11" target="xCffIDwugVprb99Rx0e6-12">
          <mxGeometry width="50" height="50" relative="1" as="geometry">
            <mxPoint x="180" y="400" as="sourcePoint" />
            <mxPoint x="230" y="350" as="targetPoint" />
          </mxGeometry>
        </mxCell>
        <mxCell id="xCffIDwugVprb99Rx0e6-20" value="inclui&lt;br&gt;" style="edgeLabel;html=1;align=center;verticalAlign=middle;resizable=0;points=[];" vertex="1" connectable="0" parent="xCffIDwugVprb99Rx0e6-19">
          <mxGeometry x="-0.168" y="3" relative="1" as="geometry">
            <mxPoint as="offset" />
          </mxGeometry>
        </mxCell>
        <mxCell id="xCffIDwugVprb99Rx0e6-22" value="" style="endArrow=classic;html=1;rounded=0;entryX=0.5;entryY=0;entryDx=0;entryDy=0;exitX=0.5;exitY=1;exitDx=0;exitDy=0;" edge="1" parent="1" source="xCffIDwugVprb99Rx0e6-12" target="xCffIDwugVprb99Rx0e6-13">
          <mxGeometry width="50" height="50" relative="1" as="geometry">
            <mxPoint x="200" y="500" as="sourcePoint" />
            <mxPoint x="250" y="450" as="targetPoint" />
          </mxGeometry>
        </mxCell>
        <mxCell id="xCffIDwugVprb99Rx0e6-23" value="inclui&lt;br&gt;" style="edgeLabel;html=1;align=center;verticalAlign=middle;resizable=0;points=[];" vertex="1" connectable="0" parent="xCffIDwugVprb99Rx0e6-22">
          <mxGeometry x="0.09" y="4" relative="1" as="geometry">
            <mxPoint as="offset" />
          </mxGeometry>
        </mxCell>
        <mxCell id="xCffIDwugVprb99Rx0e6-24" value="" style="endArrow=classic;html=1;rounded=0;exitX=0.5;exitY=0;exitDx=0;exitDy=0;entryX=0;entryY=0.5;entryDx=0;entryDy=0;" edge="1" parent="1" source="xCffIDwugVprb99Rx0e6-2" target="xCffIDwugVprb99Rx0e6-5">
          <mxGeometry width="50" height="50" relative="1" as="geometry">
            <mxPoint x="140" y="360" as="sourcePoint" />
            <mxPoint x="190" y="310" as="targetPoint" />
          </mxGeometry>
        </mxCell>
        <mxCell id="xCffIDwugVprb99Rx0e6-26" value="" style="endArrow=classic;html=1;rounded=0;" edge="1" parent="1" source="xCffIDwugVprb99Rx0e6-2">
          <mxGeometry width="50" height="50" relative="1" as="geometry">
            <mxPoint x="80" y="460" as="sourcePoint" />
            <mxPoint x="170" y="440" as="targetPoint" />
          </mxGeometry>
        </mxCell>
        <mxCell id="xCffIDwugVprb99Rx0e6-28" value="" style="endArrow=classic;html=1;rounded=0;exitX=0.607;exitY=0.937;exitDx=0;exitDy=0;exitPerimeter=0;entryX=0;entryY=0;entryDx=0;entryDy=0;" edge="1" parent="1" source="xCffIDwugVprb99Rx0e6-2" target="xCffIDwugVprb99Rx0e6-13">
          <mxGeometry width="50" height="50" relative="1" as="geometry">
            <mxPoint x="80" y="510" as="sourcePoint" />
            <mxPoint x="130" y="460" as="targetPoint" />
          </mxGeometry>
        </mxCell>
        <mxCell id="xCffIDwugVprb99Rx0e6-43" value="Ataque força bruta" style="ellipse;whiteSpace=wrap;html=1;" vertex="1" parent="1">
          <mxGeometry x="350" y="190" width="100" height="50" as="geometry" />
        </mxCell>
        <mxCell id="xCffIDwugVprb99Rx0e6-44" value="Ataques por dicionario&lt;br&gt;" style="ellipse;whiteSpace=wrap;html=1;" vertex="1" parent="1">
          <mxGeometry x="350" y="470" width="100" height="50" as="geometry" />
        </mxCell>
        <mxCell id="xCffIDwugVprb99Rx0e6-45" value="Engenharia&amp;nbsp;&lt;br&gt;Social" style="ellipse;whiteSpace=wrap;html=1;" vertex="1" parent="1">
          <mxGeometry x="364" y="330" width="100" height="50" as="geometry" />
        </mxCell>
        <mxCell id="xCffIDwugVprb99Rx0e6-47" value="" style="endArrow=classic;html=1;rounded=0;entryX=1;entryY=0.5;entryDx=0;entryDy=0;exitX=-0.155;exitY=0.73;exitDx=0;exitDy=0;exitPerimeter=0;" edge="1" parent="1" source="xCffIDwugVprb99Rx0e6-8" target="xCffIDwugVprb99Rx0e6-43">
          <mxGeometry width="50" height="50" relative="1" as="geometry">
            <mxPoint x="480" y="260" as="sourcePoint" />
            <mxPoint x="530" y="210" as="targetPoint" />
          </mxGeometry>
        </mxCell>
        <mxCell id="xCffIDwugVprb99Rx0e6-48" value="" style="endArrow=classic;html=1;rounded=0;exitX=-0.055;exitY=0.917;exitDx=0;exitDy=0;exitPerimeter=0;entryX=0.774;entryY=0.004;entryDx=0;entryDy=0;entryPerimeter=0;" edge="1" parent="1" source="xCffIDwugVprb99Rx0e6-8" target="xCffIDwugVprb99Rx0e6-45">
          <mxGeometry width="50" height="50" relative="1" as="geometry">
            <mxPoint x="410" y="370" as="sourcePoint" />
            <mxPoint x="460" y="320" as="targetPoint" />
          </mxGeometry>
        </mxCell>
        <mxCell id="xCffIDwugVprb99Rx0e6-49" value="" style="endArrow=classic;html=1;rounded=0;entryX=1;entryY=0;entryDx=0;entryDy=0;exitX=0.75;exitY=1;exitDx=0;exitDy=0;" edge="1" parent="1" source="xCffIDwugVprb99Rx0e6-8" target="xCffIDwugVprb99Rx0e6-44">
          <mxGeometry width="50" height="50" relative="1" as="geometry">
            <mxPoint x="520" y="290" as="sourcePoint" />
            <mxPoint x="570" y="240" as="targetPoint" />
          </mxGeometry>
        </mxCell>
        <mxCell id="xCffIDwugVprb99Rx0e6-52" value="" style="endArrow=classic;html=1;rounded=0;entryX=0;entryY=0.5;entryDx=0;entryDy=0;" edge="1" parent="1" source="xCffIDwugVprb99Rx0e6-13">
          <mxGeometry width="50" height="50" relative="1" as="geometry">
            <mxPoint x="260" y="485" as="sourcePoint" />
            <mxPoint x="380" y="240" as="targetPoint" />
          </mxGeometry>
        </mxCell>
        <mxCell id="xCffIDwugVprb99Rx0e6-53" value="mitiga" style="edgeLabel;html=1;align=center;verticalAlign=middle;resizable=0;points=[];" vertex="1" connectable="0" parent="xCffIDwugVprb99Rx0e6-52">
          <mxGeometry x="0.3342" y="-5" relative="1" as="geometry">
            <mxPoint x="-20" y="27" as="offset" />
          </mxGeometry>
        </mxCell>
        <mxCell id="xCffIDwugVprb99Rx0e6-59" value="" style="endArrow=classic;html=1;rounded=0;entryX=0.258;entryY=0.82;entryDx=0;entryDy=0;entryPerimeter=0;exitX=0.964;exitY=0.31;exitDx=0;exitDy=0;exitPerimeter=0;" edge="1" parent="1" source="xCffIDwugVprb99Rx0e6-13" target="xCffIDwugVprb99Rx0e6-44">
          <mxGeometry width="50" height="50" relative="1" as="geometry">
            <mxPoint x="260" y="560" as="sourcePoint" />
            <mxPoint x="310" y="510" as="targetPoint" />
          </mxGeometry>
        </mxCell>
        <mxCell id="xCffIDwugVprb99Rx0e6-71" value="mitiga" style="edgeLabel;html=1;align=center;verticalAlign=middle;resizable=0;points=[];" vertex="1" connectable="0" parent="xCffIDwugVprb99Rx0e6-59">
          <mxGeometry x="-0.0607" y="-6" relative="1" as="geometry">
            <mxPoint as="offset" />
          </mxGeometry>
        </mxCell>
        <mxCell id="xCffIDwugVprb99Rx0e6-63" value="" style="endArrow=classic;html=1;rounded=0;entryX=1;entryY=0.5;entryDx=0;entryDy=0;exitX=0;exitY=0.5;exitDx=0;exitDy=0;" edge="1" parent="1" source="xCffIDwugVprb99Rx0e6-43" target="xCffIDwugVprb99Rx0e6-5">
          <mxGeometry width="50" height="50" relative="1" as="geometry">
            <mxPoint x="320" y="250" as="sourcePoint" />
            <mxPoint x="370" y="200" as="targetPoint" />
          </mxGeometry>
        </mxCell>
        <mxCell id="xCffIDwugVprb99Rx0e6-64" value="" style="endArrow=classic;html=1;rounded=0;entryX=0.5;entryY=0;entryDx=0;entryDy=0;exitX=0.602;exitY=1.076;exitDx=0;exitDy=0;exitPerimeter=0;" edge="1" parent="1" source="xCffIDwugVprb99Rx0e6-43" target="xCffIDwugVprb99Rx0e6-45">
          <mxGeometry width="50" height="50" relative="1" as="geometry">
            <mxPoint x="400" y="280" as="sourcePoint" />
            <mxPoint x="450" y="230" as="targetPoint" />
          </mxGeometry>
        </mxCell>
        <mxCell id="xCffIDwugVprb99Rx0e6-65" value="inclui" style="edgeLabel;html=1;align=center;verticalAlign=middle;resizable=0;points=[];" vertex="1" connectable="0" parent="xCffIDwugVprb99Rx0e6-64">
          <mxGeometry x="-0.1416" relative="1" as="geometry">
            <mxPoint as="offset" />
          </mxGeometry>
        </mxCell>
        <mxCell id="xCffIDwugVprb99Rx0e6-67" value="" style="endArrow=classic;html=1;rounded=0;entryX=0.5;entryY=0;entryDx=0;entryDy=0;exitX=0.414;exitY=0.98;exitDx=0;exitDy=0;exitPerimeter=0;" edge="1" parent="1" source="xCffIDwugVprb99Rx0e6-45" target="xCffIDwugVprb99Rx0e6-44">
          <mxGeometry width="50" height="50" relative="1" as="geometry">
            <mxPoint x="390" y="440" as="sourcePoint" />
            <mxPoint x="440" y="390" as="targetPoint" />
          </mxGeometry>
        </mxCell>
        <mxCell id="xCffIDwugVprb99Rx0e6-68" value="inclui&lt;br&gt;" style="edgeLabel;html=1;align=center;verticalAlign=middle;resizable=0;points=[];" vertex="1" connectable="0" parent="xCffIDwugVprb99Rx0e6-67">
          <mxGeometry x="-0.1263" y="1" relative="1" as="geometry">
            <mxPoint as="offset" />
          </mxGeometry>
        </mxCell>
        <mxCell id="xCffIDwugVprb99Rx0e6-69" value="" style="endArrow=classic;html=1;rounded=0;entryX=0.09;entryY=0.66;entryDx=0;entryDy=0;entryPerimeter=0;" edge="1" parent="1" target="xCffIDwugVprb99Rx0e6-44">
          <mxGeometry width="50" height="50" relative="1" as="geometry">
            <mxPoint x="270" y="460" as="sourcePoint" />
            <mxPoint x="310" y="410" as="targetPoint" />
          </mxGeometry>
        </mxCell>
        <mxCell id="xCffIDwugVprb99Rx0e6-70" value="mitiga" style="edgeLabel;html=1;align=center;verticalAlign=middle;resizable=0;points=[];" vertex="1" connectable="0" parent="xCffIDwugVprb99Rx0e6-69">
          <mxGeometry x="0.0621" y="-1" relative="1" as="geometry">
            <mxPoint as="offset" />
          </mxGeometry>
        </mxCell>
        <mxCell id="xCffIDwugVprb99Rx0e6-73" value="" style="endArrow=classic;html=1;rounded=0;entryX=0.051;entryY=0.7;entryDx=0;entryDy=0;entryPerimeter=0;" edge="1" parent="1" target="xCffIDwugVprb99Rx0e6-11">
          <mxGeometry width="50" height="50" relative="1" as="geometry">
            <mxPoint x="90" y="420" as="sourcePoint" />
            <mxPoint x="140" y="370" as="targetPoint" />
          </mxGeometry>
        </mxCell>
        <mxCell id="xCffIDwugVprb99Rx0e6-74" value="" style="endArrow=classic;html=1;rounded=0;entryX=0.31;entryY=0.068;entryDx=0;entryDy=0;entryPerimeter=0;" edge="1" parent="1" target="xCffIDwugVprb99Rx0e6-45">
          <mxGeometry width="50" height="50" relative="1" as="geometry">
            <mxPoint x="270" y="330" as="sourcePoint" />
            <mxPoint x="320" y="280" as="targetPoint" />
          </mxGeometry>
        </mxCell>
        <mxCell id="xCffIDwugVprb99Rx0e6-75" value="mitiga" style="edgeLabel;html=1;align=center;verticalAlign=middle;resizable=0;points=[];" vertex="1" connectable="0" parent="xCffIDwugVprb99Rx0e6-74">
          <mxGeometry x="-0.2989" y="-1" relative="1" as="geometry">
            <mxPoint as="offset" />
          </mxGeometry>
        </mxCell>
        <mxCell id="xCffIDwugVprb99Rx0e6-76" value="" style="endArrow=classic;html=1;rounded=0;entryX=0.006;entryY=0.626;entryDx=0;entryDy=0;entryPerimeter=0;" edge="1" parent="1" target="xCffIDwugVprb99Rx0e6-3">
          <mxGeometry width="50" height="50" relative="1" as="geometry">
            <mxPoint x="80" y="120" as="sourcePoint" />
            <mxPoint x="130" y="70" as="targetPoint" />
          </mxGeometry>
        </mxCell>
      </root>
    </mxGraphModel>
  </diagram>
</mxfile>
